<mxfile host="65bd71144e" modified="2021-01-30T08:13:23.361Z" agent="5.0 (Windows NT 10.0; Win64; x64) AppleWebKit/537.36 (KHTML, like Gecko) Code/1.52.1 Chrome/83.0.4103.122 Electron/9.3.5 Safari/537.36" version="13.10.0" etag="JsxbGelFFGFbazqAqyXQ" type="embed">
    <diagram id="73U1D7O_o9Zir3g_7Z0v" name="Page-1">
        <mxGraphModel dx="1142" dy="463" grid="1" gridSize="10" guides="1" tooltips="1" connect="1" arrows="1" fold="1" page="1" pageScale="1" pageWidth="850" pageHeight="1100" math="0" shadow="0">
            <root>
                <mxCell id="0"/>
                <mxCell id="1" parent="0"/>
                <mxCell id="3" value="&lt;font style=&quot;font-size: 36px&quot;&gt;User&lt;/font&gt;&lt;br&gt;[person]&lt;br&gt;&lt;br&gt;Wants to Focus" style="rounded=1;whiteSpace=wrap;html=1;" vertex="1" parent="1">
                    <mxGeometry x="170" y="10" width="210" height="100" as="geometry"/>
                </mxCell>
                <mxCell id="7" value="Keep Adding&lt;br&gt;Tasks&amp;nbsp;" style="edgeStyle=orthogonalEdgeStyle;rounded=0;orthogonalLoop=1;jettySize=auto;html=1;exitX=0.25;exitY=1;exitDx=0;exitDy=0;entryX=0.75;entryY=1;entryDx=0;entryDy=0;" edge="1" parent="1" source="5" target="5">
                    <mxGeometry relative="1" as="geometry">
                        <mxPoint x="200" y="320" as="targetPoint"/>
                        <Array as="points">
                            <mxPoint x="93" y="370"/>
                            <mxPoint x="198" y="370"/>
                        </Array>
                    </mxGeometry>
                </mxCell>
                <mxCell id="5" value="&lt;font style=&quot;font-size: 24px&quot;&gt;addTask&lt;/font&gt;&lt;br&gt;[function]&lt;br&gt;&lt;br&gt;adds each task the user wants to do" style="rounded=1;whiteSpace=wrap;html=1;" vertex="1" parent="1">
                    <mxGeometry x="40" y="200" width="210" height="100" as="geometry"/>
                </mxCell>
                <mxCell id="10" value="&lt;font style=&quot;font-size: 24px&quot;&gt;start&lt;/font&gt;&lt;br&gt;[function]&lt;br&gt;&lt;br&gt;starts the pomo-timer" style="rounded=1;whiteSpace=wrap;html=1;" vertex="1" parent="1">
                    <mxGeometry x="280" y="200" width="210" height="100" as="geometry"/>
                </mxCell>
                <mxCell id="11" value="&lt;font style=&quot;font-size: 24px&quot;&gt;start&lt;/font&gt;&lt;br&gt;[function]&lt;br&gt;&lt;br&gt;starts the pomo-timer" style="rounded=1;whiteSpace=wrap;html=1;" vertex="1" parent="1">
                    <mxGeometry x="560" y="20" width="210" height="100" as="geometry"/>
                </mxCell>
            </root>
        </mxGraphModel>
    </diagram>
</mxfile>